<svg xmlns="http://www.w3.org/2000/svg" viewBox="0 0 512 512" role="img" aria-labelledby="title desc">
  <title id="title">GPT Image 2 logo option B</title>
  <desc id="desc">A bold G2 monogram wrapped in an aurora gradient ribbon.</desc>
  <defs>
    <linearGradient id="brand" x1="84" x2="428" y1="116" y2="390" gradientUnits="userSpaceOnUse">
      <stop stop-color="#00C2D8"/>
      <stop offset=".5" stop-color="#56E287"/>
      <stop offset="1" stop-color="#B5F236"/>
    </linearGradient>
    <radialGradient id="wash" cx="0" cy="0" r="1" gradientTransform="matrix(0 230 -230 0 260 260)" gradientUnits="userSpaceOnUse">
      <stop stop-color="#E9FFF7"/>
      <stop offset=".5" stop-color="#D9FBFF"/>
      <stop offset="1" stop-color="#FFFFFF"/>
    </radialGradient>
    <filter id="shadow" x="-20%" y="-20%" width="140%" height="140%">
      <feDropShadow dx="0" dy="18" stdDeviation="18" flood-color="#02343A" flood-opacity=".18"/>
    </filter>
  </defs>
  <rect width="512" height="512" rx="112" fill="url(#wash)"/>
  <path d="M389 170c-28-42-73-66-128-66-84 0-150 64-150 152s66 152 153 152c71 0 127-42 141-107H278" fill="none" stroke="url(#brand)" stroke-width="48" stroke-linecap="round" stroke-linejoin="round" filter="url(#shadow)"/>
  <path d="M280 252h111c29 0 45 34 26 56l-88 102h103" fill="none" stroke="#132025" stroke-width="38" stroke-linecap="round" stroke-linejoin="round"/>
  <path d="M120 156c44-40 92-58 144-54" fill="none" stroke="#FFFFFF" stroke-width="10" stroke-linecap="round" opacity=".75"/>
  <circle cx="118" cy="345" r="18" fill="#06B6D4"/>
  <circle cx="394" cy="120" r="16" fill="#A3E635"/>
  <circle cx="420" cy="370" r="9" fill="#4ADE80"/>
</svg>
