<svg xmlns="http://www.w3.org/2000/svg" width="512" height="512" viewBox="0 0 512 512" role="img" aria-labelledby="title desc">
  <title id="title">Lusee logo option orbit</title>
  <desc id="desc">A luminous L monogram wrapped by an orbit ring for an AI creative suite.</desc>
  <defs>
    <linearGradient id="lusee-orbit-bg" x1="88" x2="424" y1="64" y2="448" gradientUnits="userSpaceOnUse">
      <stop stop-color="#111827"/>
      <stop offset="0.45" stop-color="#0A0A0A"/>
      <stop offset="1" stop-color="#1E1B4B"/>
    </linearGradient>
    <linearGradient id="lusee-orbit-stroke" x1="118" x2="392" y1="126" y2="378" gradientUnits="userSpaceOnUse">
      <stop stop-color="#A78BFA"/>
      <stop offset="0.48" stop-color="#22D3EE"/>
      <stop offset="1" stop-color="#F0ABFC"/>
    </linearGradient>
    <filter id="lusee-orbit-glow" x="-30%" y="-30%" width="160%" height="160%" color-interpolation-filters="sRGB">
      <feDropShadow dx="0" dy="18" stdDeviation="24" flood-color="#7C3AED" flood-opacity="0.35"/>
      <feDropShadow dx="0" dy="0" stdDeviation="12" flood-color="#22D3EE" flood-opacity="0.22"/>
    </filter>
  </defs>
  <rect x="48" y="48" width="416" height="416" rx="104" fill="url(#lusee-orbit-bg)"/>
  <path d="M141 277c45-92 145-150 245-129 31 7 52 21 55 39 6 35-55 81-137 102-82 20-156 8-163-27-3-15 8-33 29-50" fill="none" stroke="url(#lusee-orbit-stroke)" stroke-width="18" stroke-linecap="round" opacity="0.82"/>
  <path d="M179 143v211c0 10 8 18 18 18h138" fill="none" stroke="#F8FAFC" stroke-width="46" stroke-linecap="round" stroke-linejoin="round" filter="url(#lusee-orbit-glow)"/>
  <circle cx="365" cy="157" r="18" fill="#F472B6"/>
  <circle cx="386" cy="355" r="9" fill="#22D3EE"/>
</svg>
