<svg xmlns="http://www.w3.org/2000/svg" width="512" height="512" viewBox="0 0 512 512" role="img" aria-labelledby="title desc">
  <title id="title">Lusee logo option liquid</title>
  <desc id="desc">A liquid gradient L monogram for generative images, video, and voice.</desc>
  <defs>
    <linearGradient id="lusee-liquid-bg" x1="56" x2="456" y1="76" y2="436" gradientUnits="userSpaceOnUse">
      <stop stop-color="#180A2E"/>
      <stop offset="0.45" stop-color="#050713"/>
      <stop offset="1" stop-color="#022C22"/>
    </linearGradient>
    <linearGradient id="lusee-liquid-mark" x1="138" x2="376" y1="122" y2="378" gradientUnits="userSpaceOnUse">
      <stop stop-color="#FFFFFF"/>
      <stop offset="0.35" stop-color="#E9D5FF"/>
      <stop offset="0.7" stop-color="#67E8F9"/>
      <stop offset="1" stop-color="#86EFAC"/>
    </linearGradient>
    <filter id="lusee-liquid-shadow" x="-30%" y="-30%" width="160%" height="160%" color-interpolation-filters="sRGB">
      <feDropShadow dx="0" dy="24" stdDeviation="30" flood-color="#22C55E" flood-opacity="0.22"/>
      <feDropShadow dx="0" dy="0" stdDeviation="18" flood-color="#A855F7" flood-opacity="0.28"/>
    </filter>
  </defs>
  <rect x="48" y="48" width="416" height="416" rx="126" fill="url(#lusee-liquid-bg)"/>
  <path d="M175 133c26-11 59 7 59 37v140h104c29 0 50 29 39 56-7 17-23 28-42 28H196c-34 0-62-28-62-62V188c0-25 16-46 41-55Z" fill="url(#lusee-liquid-mark)" filter="url(#lusee-liquid-shadow)"/>
  <path d="M282 131c38 8 72 32 95 66" fill="none" stroke="#22D3EE" stroke-width="18" stroke-linecap="round" opacity="0.6"/>
  <path d="M367 222c13 37 8 78-14 112" fill="none" stroke="#A78BFA" stroke-width="18" stroke-linecap="round" opacity="0.6"/>
</svg>
