<svg xmlns="http://www.w3.org/2000/svg" width="512" height="512" viewBox="0 0 64 64" role="img" aria-labelledby="title desc">
  <title id="title">Seedance 2.5 favicon</title>
  <desc id="desc">A compact layered flowing seed mark.</desc>
  <defs>
    <linearGradient id="seedance-favicon-a" x1="8" y1="12" x2="54" y2="52" gradientUnits="userSpaceOnUse">
      <stop offset="0" stop-color="#67F4DC"/>
      <stop offset="1" stop-color="#28D7B8"/>
    </linearGradient>
    <linearGradient id="seedance-favicon-b" x1="58" y1="16" x2="24" y2="58" gradientUnits="userSpaceOnUse">
      <stop offset="0" stop-color="#7357FF"/>
      <stop offset="1" stop-color="#5427EA"/>
    </linearGradient>
    <linearGradient id="seedance-favicon-c" x1="15" y1="17" x2="47" y2="44" gradientUnits="userSpaceOnUse">
      <stop offset="0" stop-color="#77EFE8"/>
      <stop offset="1" stop-color="#64D7DF"/>
    </linearGradient>
  </defs>
  <path d="M15.7 10.4c5.5-2.7 13 .1 21.6 4.4 11.8 5.9 20.2 13 18.5 22-1.5 8.1-10.7 13.9-25.3 16.1C15.8 55.2 7 49.3 7 37.2V25c0-7.1 2.8-12 8.7-14.6Z" fill="url(#seedance-favicon-a)"/>
  <path d="M31.4 12.9c6.6 1.9 14.8 6.3 20.3 11.8 5.5 5.6 6.7 12.6 2.3 18.2-4.7 6.1-14.5 9.4-28.8 9.9-5.2.2-8.5-1.4-9.5-4.6-1.2-3.7 1.4-7.8 6.5-10.2l12.2-5.8c5.7-2.7 7.5-6.8 4.5-10.7-1.5-2-4-3.7-7.5-5.2v-3.4Z" fill="url(#seedance-favicon-b)"/>
  <path d="M20.2 13.6c4.7-1.2 10.5.9 17.4 4.5 8.4 4.4 13.8 9.8 12.3 16.3-1.5 6.4-9.1 10.2-20.7 12.5-9.6 1.9-16.2-1.5-16.4-9.5l-.3-10.8c-.2-6.8 2.4-11.6 7.7-13Z" fill="url(#seedance-favicon-c)" opacity=".88"/>
</svg>
