<svg xmlns="http://www.w3.org/2000/svg" width="512" height="512" viewBox="0 0 64 64" role="img" aria-labelledby="title desc">
  <title id="title">Seedance 2.5 logo mark</title>
  <desc id="desc">A distinct flowing seed orbit mark shaped for video motion and compact app icons.</desc>
  <defs>
    <linearGradient id="seedance-a" x1="11" y1="9" x2="47" y2="55" gradientUnits="userSpaceOnUse">
      <stop offset="0" stop-color="#6AF5DC"/>
      <stop offset="1" stop-color="#1DCDB6"/>
    </linearGradient>
    <linearGradient id="seedance-b" x1="51" y1="8" x2="17" y2="54" gradientUnits="userSpaceOnUse">
      <stop offset="0" stop-color="#7F62FF"/>
      <stop offset="1" stop-color="#4E22E8"/>
    </linearGradient>
    <linearGradient id="seedance-c" x1="24" y1="19" x2="43" y2="42" gradientUnits="userSpaceOnUse">
      <stop offset="0" stop-color="#A1FFF1"/>
      <stop offset="1" stop-color="#65DEE6"/>
    </linearGradient>
  </defs>
  <path d="M16.6 12.7c8.4-6.9 23.9-3.7 28.6 6 3.1 6.3-.2 11.9-9.4 15.9L20.4 41.3c-5 2.2-10.4-1.7-9.9-7.1l.8-8.6c.6-5.7 2.3-10 5.3-12.9Z" fill="url(#seedance-a)"/>
  <path d="M52.8 13.4c3.9 4.4 3.8 11.7-.4 17.3-4.7 6.4-14.3 11.4-27.8 14.8l-5.2 1.3c-5.1 1.3-8.8-4.5-5.6-8.7 3.4-4.4 8.6-8.2 15.6-11.5l11.2-5.2c5.8-2.7 9.9-5.3 12.2-8Z" fill="url(#seedance-b)"/>
  <path d="M26.6 19.8c8.1-2 15.1 1.2 15.7 7.2.5 4.8-3.1 9.3-9.5 11.8l-6.1 2.4c-4.6 1.8-9.5-1.7-9.2-6.7l.3-4.7c.3-4.5 3.4-8.6 8.8-10Z" fill="url(#seedance-c)" opacity=".82"/>
  <path d="M26.4 31.4c3.9-4.4 10.9-6.6 16.2-5.1-1.7 4-5.5 7.1-11.3 9.3l-6.6 2.5c-.1-2.5.5-4.7 1.7-6.7Z" fill="#D7FFF8" opacity=".5"/>
</svg>
