<svg xmlns="http://www.w3.org/2000/svg" width="278" height="48" viewBox="0 0 278 48" role="img" aria-labelledby="title desc">
  <title id="title">Seedance 2.5 wordmark</title>
  <desc id="desc">Seedance 2.5 wordmark with a flowing seed orbit mark.</desc>
  <defs>
    <linearGradient id="seedance-lockup-a" x1="8" y1="8" x2="35" y2="42" gradientUnits="userSpaceOnUse">
      <stop offset="0" stop-color="#6AF5DC"/>
      <stop offset="1" stop-color="#1DCDB6"/>
    </linearGradient>
    <linearGradient id="seedance-lockup-b" x1="38" y1="7" x2="13" y2="42" gradientUnits="userSpaceOnUse">
      <stop offset="0" stop-color="#7F62FF"/>
      <stop offset="1" stop-color="#4E22E8"/>
    </linearGradient>
    <linearGradient id="seedance-lockup-c" x1="18" y1="15" x2="32" y2="33" gradientUnits="userSpaceOnUse">
      <stop offset="0" stop-color="#A1FFF1"/>
      <stop offset="1" stop-color="#65DEE6"/>
    </linearGradient>
  </defs>
  <path d="M13.1 8.3c6.2-5.1 17.6-2.7 21.1 4.4 2.3 4.7-.2 8.8-6.9 11.8l-11.4 4.9c-3.7 1.6-7.7-1.2-7.3-5.2l.6-6.3c.4-4.2 1.7-7.4 3.9-9.6Z" fill="url(#seedance-lockup-a)"/>
  <path d="M39.7 8.9c2.9 3.2 2.8 8.6-.3 12.8-3.5 4.7-10.6 8.4-20.5 10.9l-3.8 1c-3.8 1-6.5-3.3-4.1-6.4 2.5-3.3 6.3-6.1 11.5-8.5l8.3-3.8c4.3-2 7.3-4 8.9-6Z" fill="url(#seedance-lockup-b)"/>
  <path d="M20.5 13.5c6-1.5 11.1.9 11.6 5.3.4 3.6-2.3 6.9-7 8.7l-4.5 1.8c-3.4 1.3-7-1.3-6.8-5l.2-3.5c.3-3.3 2.6-6.3 6.5-7.3Z" fill="url(#seedance-lockup-c)" opacity=".82"/>
  <text x="52" y="32" fill="#101828" font-family="Inter, ui-sans-serif, system-ui, -apple-system, BlinkMacSystemFont, Segoe UI, sans-serif" font-size="25" font-weight="720" letter-spacing="0">Seedance 2.5</text>
</svg>
