<svg xmlns="http://www.w3.org/2000/svg" width="278" height="48" viewBox="0 0 278 48" role="img" aria-labelledby="title desc">
  <title id="title">Seedance 2.5 wordmark</title>
  <desc id="desc">Seedance 2.5 wordmark with a layered flowing seed mark.</desc>
  <defs>
    <linearGradient id="seedance-lockup-a" x1="4" y1="10" x2="39" y2="40" gradientUnits="userSpaceOnUse">
      <stop offset="0" stop-color="#67F4DC"/>
      <stop offset="1" stop-color="#28D7B8"/>
    </linearGradient>
    <linearGradient id="seedance-lockup-b" x1="43" y1="13" x2="17" y2="43" gradientUnits="userSpaceOnUse">
      <stop offset="0" stop-color="#7357FF"/>
      <stop offset="1" stop-color="#5427EA"/>
    </linearGradient>
    <linearGradient id="seedance-lockup-c" x1="9" y1="14" x2="33" y2="34" gradientUnits="userSpaceOnUse">
      <stop offset="0" stop-color="#77EFE8"/>
      <stop offset="1" stop-color="#64D7DF"/>
    </linearGradient>
  </defs>
  <path d="M11.7 8.8c4-2 9.6.1 16 3.3 8.7 4.4 14.9 9.6 13.7 16.3-1.1 6-7.9 10.3-18.7 11.9C11.8 42 5.3 37.7 5.3 28.7v-9c0-5.3 2.1-8.9 6.4-10.9Z" fill="url(#seedance-lockup-a)"/>
  <path d="M23.3 10.7c4.9 1.4 10.9 4.6 15 8.7s4.9 9.3 1.7 13.5c-3.5 4.5-10.7 7-21.3 7.3-3.8.1-6.3-1-7-3.4-.9-2.7 1-5.8 4.8-7.5l9-4.3c4.2-2 5.5-5 3.3-7.9-1.1-1.5-3-2.8-5.5-3.8v-2.6Z" fill="url(#seedance-lockup-b)"/>
  <path d="M15 11.2c3.5-.9 7.8.7 12.9 3.3 6.2 3.2 10.2 7.2 9 12-1.1 4.7-6.7 7.5-15.3 9.2-7.1 1.4-12-1.1-12.1-7l-.2-8c-.2-5 1.8-8.5 5.7-9.5Z" fill="url(#seedance-lockup-c)" opacity=".88"/>
  <text x="52" y="32" fill="#101828" font-family="Inter, ui-sans-serif, system-ui, -apple-system, BlinkMacSystemFont, Segoe UI, sans-serif" font-size="25" font-weight="720" letter-spacing="0">Seedance 2.5</text>
</svg>
