<svg xmlns="http://www.w3.org/2000/svg" viewBox="0 0 96 96" fill="none">
  <defs>
    <linearGradient id="bg" x1="14" y1="8" x2="82" y2="88" gradientUnits="userSpaceOnUse">
      <stop stop-color="#0F172A"/>
      <stop offset="1" stop-color="#1E293B"/>
    </linearGradient>
    <linearGradient id="skin" x1="48" y1="24" x2="48" y2="60" gradientUnits="userSpaceOnUse">
      <stop stop-color="#F6D0BB"/>
      <stop offset="1" stop-color="#DEAB8B"/>
    </linearGradient>
  </defs>
  <rect width="96" height="96" rx="32" fill="url(#bg)"/>
  <circle cx="48" cy="39" r="17.5" fill="url(#skin)"/>
  <path d="M29 36c0-14 8-24 20-24 8 0 15 5 19 13-5 1-11 2-16 5-5 3-10 7-15 13-5-1-8-3-8-7Z" fill="#201A19"/>
  <path d="M30 36c1 20 8 33 18 33 11 0 19-15 18-34-4 5-10 8-18 8-7 0-13-2-18-7Z" fill="#201A19"/>
  <ellipse cx="41.5" cy="40.7" rx="2.1" ry="2.4" fill="#311F1C"/>
  <ellipse cx="55.2" cy="40.7" rx="2.1" ry="2.4" fill="#311F1C"/>
  <path d="M42 52c3 2.6 9.3 2.6 12.2 0" stroke="#B85C56" stroke-linecap="round" stroke-width="2.4"/>
  <path d="M28 94c4-13 12-21 20-21s16 8 20 21H28Z" fill="#111827"/>
  <path d="M32 33c7-5 14-8 23-9" stroke="#45312A" stroke-linecap="round" stroke-width="3"/>
</svg>
